{
	"asset":{
		"generator":"Khronos glTF Blender I/O v5.2.39",
		"version":"2.0"
	},
	"scene":0,
	"scenes":[
		{
			"name":"Scene",
			"nodes":[
				54
			]
		}
	],
	"nodes":[
		{
			"name":"DEF-f_index.03.L",
			"rotation":[
				-1.0215953246111437e-13,
				-2.2737367544323206e-13,
				-6.009715701428206e-16,
				1
			],
			"translation":[
				-2.238264906750942e-09,
				0.034799911081790924,
				-3.2792399906611536e-08
			]
		},
		{
			"children":[
				0
			],
			"name":"DEF-f_index.02.L",
			"rotation":[
				-9.181305635062214e-16,
				-1.0347150691814022e-07,
				-8.651904970236046e-09,
				1
			],
			"translation":[
				1.876886202012429e-09,
				0.04069993644952774,
				9.355646568565135e-08
			]
		},
		{
			"children":[
				1
			],
			"name":"Index_L",
			"rotation":[
				-4.8541171082661094e-08,
				0.7071094512939453,
				-4.8541551223024726e-08,
				0.7071040868759155
			],
			"scale":[
				1,
				0.9999998807907104,
				1
			],
			"translation":[
				0.0020000457298010588,
				0.11989989876747131,
				0.030899981036782265
			]
		},
		{
			"name":"DEF-f_middle.03.L",
			"rotation":[
				6.732348456495174e-09,
				-7.144956501448085e-12,
				-0.0011296625016257167,
				0.9999993443489075
			],
			"translation":[
				-1.178068487206474e-08,
				0.03393320366740227,
				1.3249018593342043e-07
			]
		},
		{
			"children":[
				3
			],
			"name":"DEF-f_middle.02.L",
			"rotation":[
				-8.397988082720076e-09,
				-1.0374929360068563e-07,
				0.00151354621630162,
				0.9999988675117493
			],
			"translation":[
				2.2795575205236673e-08,
				0.04234730824828148,
				-1.1679480849124957e-07
			]
		},
		{
			"children":[
				4
			],
			"name":"Middle_L",
			"rotation":[
				-0.016702497377991676,
				0.7069121599197388,
				-0.016702575609087944,
				0.7069068551063538
			],
			"scale":[
				0.9999999403953552,
				0.9999998807907104,
				0.9999998807907104
			],
			"translation":[
				-0.000400269083911553,
				0.12159993499517441,
				0.005200006999075413
			]
		},
		{
			"name":"DEF-f_pinky.03.L",
			"rotation":[
				-3.778804380516476e-09,
				5.7269761849498835e-12,
				0.0006096867728047073,
				0.9999998211860657
			],
			"scale":[
				0.9999999403953552,
				0.9999998807907104,
				1
			],
			"translation":[
				-1.8009814084507525e-08,
				0.027665451169013977,
				-1.809564196264546e-07
			]
		},
		{
			"children":[
				6
			],
			"name":"DEF-f_pinky.02.L",
			"rotation":[
				3.59384144665853e-09,
				-2.2305687252810458e-07,
				-0.0008343667141161859,
				0.9999996423721313
			],
			"scale":[
				0.9999999403953552,
				0.9999998807907104,
				1
			],
			"translation":[
				-2.7910573408007622e-08,
				0.04029066115617752,
				-3.9133325913098815e-07
			]
		},
		{
			"children":[
				7
			],
			"name":"Pinky_L",
			"rotation":[
				-0.023706024512648582,
				0.7067121267318726,
				-0.02370615489780903,
				0.7067064642906189
			],
			"scale":[
				1,
				0.9999998807907104,
				1
			],
			"translation":[
				0.0015995221910998225,
				0.10769964754581451,
				-0.04079996049404144
			]
		},
		{
			"name":"DEF-f_ring.03.L",
			"rotation":[
				6.359557769286539e-09,
				-9.714013447792436e-12,
				-0.0010670904302969575,
				0.9999994039535522
			],
			"scale":[
				1,
				0.9999999403953552,
				1
			],
			"translation":[
				1.4328179531730711e-08,
				0.030919590964913368,
				-4.0579726601208677e-07
			]
		},
		{
			"children":[
				9
			],
			"name":"DEF-f_ring.02.L",
			"rotation":[
				-5.458304364047706e-10,
				-2.2286960188466765e-07,
				1.209788206324447e-05,
				1
			],
			"scale":[
				0.9999999403953552,
				0.9999999403953552,
				1
			],
			"translation":[
				1.9566869013942778e-08,
				0.03932500630617142,
				-2.644303833676531e-07
			]
		},
		{
			"children":[
				10
			],
			"name":"Ring_L",
			"rotation":[
				-0.012588663958013058,
				0.7069974541664124,
				-0.012588727287948132,
				0.7069920301437378
			],
			"scale":[
				0.9999999403953552,
				0.9999997615814209,
				0.9999998807907104
			],
			"translation":[
				-0.00010001179907703772,
				0.11909975111484528,
				-0.01709998957812786
			]
		},
		{
			"name":"DEF-thumb.03.L",
			"rotation":[
				0.0002477933594491333,
				8.105328015517443e-05,
				-0.0005366474506445229,
				0.9999998807907104
			],
			"scale":[
				0.9999999403953552,
				0.9999998211860657,
				0.9999999403953552
			],
			"translation":[
				2.609440343803726e-07,
				0.04907792806625366,
				2.1886080503463745e-08
			]
		},
		{
			"children":[
				12
			],
			"name":"DEF-thumb.02.L",
			"rotation":[
				-0.00013586321438197047,
				-7.424532668665051e-05,
				4.787751822732389e-05,
				1
			],
			"scale":[
				1.0000001192092896,
				0.9999998807907104,
				0.9999999403953552
			],
			"translation":[
				5.168394636712037e-07,
				0.04302971065044403,
				-2.9802322387695312e-08
			]
		},
		{
			"children":[
				13
			],
			"name":"Thumb_L",
			"rotation":[
				0.24741344153881073,
				0.945794403553009,
				0.2034410983324051,
				0.05358405411243439
			],
			"scale":[
				1,
				1.0000001192092896,
				0.9999999403953552
			],
			"translation":[
				0.02279968559741974,
				0.027299914509058,
				0.03359999507665634
			]
		},
		{
			"children":[
				2,
				5,
				8,
				11,
				14
			],
			"name":"Wrist_L",
			"rotation":[
				-0.00861971452832222,
				-4.589371371821471e-07,
				-2.106301195681226e-07,
				0.9999628663063049
			],
			"translation":[
				4.054053306390415e-07,
				0.27264052629470825,
				-1.0691962870623684e-09
			]
		},
		{
			"children":[
				15
			],
			"name":"Forearm_L",
			"rotation":[
				0.0171822439879179,
				-2.0285642676753923e-05,
				5.549146635530633e-07,
				0.9998524188995361
			],
			"translation":[
				-8.789072580839274e-09,
				0.27444031834602356,
				3.354944055899978e-08
			]
		},
		{
			"children":[
				16
			],
			"name":"UpperArm_L",
			"rotation":[
				0.18026956915855408,
				0.6838498711585999,
				-0.1798364818096161,
				0.6837478876113892
			],
			"scale":[
				1,
				1.0000003576278687,
				1
			],
			"translation":[
				-0.030072350054979324,
				0.21858161687850952,
				-0.016968319192528725
			]
		},
		{
			"children":[
				17
			],
			"name":"Clavicle_L",
			"rotation":[
				-0.6040205359458923,
				-0.34510311484336853,
				-0.3567177653312683,
				0.6235507726669312
			],
			"scale":[
				1,
				1.0000001192092896,
				1
			],
			"translation":[
				0.01879996992647648,
				0.1405540257692337,
				0.08089501410722733
			]
		},
		{
			"name":"DEF-f_index.03.R",
			"rotation":[
				-1.0329710787367226e-14,
				1.1198945823421777e-13,
				-2.8120206358762945e-15,
				1
			],
			"translation":[
				-4.390741992210678e-09,
				0.03480009362101555,
				-2.5198096054168673e-08
			]
		},
		{
			"children":[
				19
			],
			"name":"DEF-f_index.02.R",
			"rotation":[
				-1.0177743251047616e-13,
				1.126411461882526e-07,
				-7.643944505142386e-11,
				1
			],
			"translation":[
				-4.289617550057301e-09,
				0.040700118988752365,
				1.0178330711596573e-07
			]
		},
		{
			"children":[
				20
			],
			"name":"Index_R",
			"rotation":[
				-3.2360681245791056e-08,
				-0.7071095108985901,
				3.236093348846225e-08,
				0.7071040272712708
			],
			"scale":[
				1,
				0.9999999403953552,
				1
			],
			"translation":[
				-0.0020001649390906096,
				0.11989960819482803,
				0.030899999663233757
			]
		},
		{
			"name":"DEF-f_middle.03.R",
			"rotation":[
				6.714266032048499e-09,
				-5.2378365533733984e-11,
				0.0011296559823676944,
				0.9999993443489075
			],
			"scale":[
				0.9999999403953552,
				1,
				1
			],
			"translation":[
				-1.2435521057341248e-08,
				0.03393327817320824,
				-1.062838350662787e-07
			]
		},
		{
			"children":[
				22
			],
			"name":"DEF-f_middle.02.R",
			"rotation":[
				-8.565976372665318e-09,
				2.3099526913483714e-07,
				-0.0015135089633986354,
				0.9999988675117493
			],
			"translation":[
				5.538822733797133e-09,
				0.042347315698862076,
				-1.1214495998501661e-07
			]
		},
		{
			"children":[
				23
			],
			"name":"Middle_R",
			"rotation":[
				-0.016702421009540558,
				-0.7069122195243835,
				0.016702501103281975,
				0.7069067358970642
			],
			"scale":[
				1.0000001192092896,
				1.0000001192092896,
				1
			],
			"translation":[
				0.0003999114560429007,
				0.12159988284111023,
				0.005200000014156103
			]
		},
		{
			"name":"DEF-f_pinky.03.R",
			"rotation":[
				-3.621842825651811e-09,
				2.171374711978924e-11,
				-0.0006094166892580688,
				0.9999998211860657
			],
			"scale":[
				0.9999999403953552,
				0.9999998807907104,
				1
			],
			"translation":[
				3.5142875276505947e-09,
				0.027665559202432632,
				-4.315051853609475e-07
			]
		},
		{
			"children":[
				25
			],
			"name":"DEF-f_pinky.02.R",
			"rotation":[
				3.388109126589711e-09,
				2.3092650280887028e-07,
				0.0008343367953784764,
				0.9999996423721313
			],
			"translation":[
				-1.3067619875073433e-08,
				0.040290478616952896,
				1.9297917219773808e-07
			]
		},
		{
			"children":[
				26
			],
			"name":"Pinky_R",
			"rotation":[
				-0.02370595373213291,
				-0.7067120671272278,
				0.023706084117293358,
				0.7067065238952637
			],
			"scale":[
				1.0000001192092896,
				1,
				1
			],
			"translation":[
				-0.0015999990282580256,
				0.10769977420568466,
				-0.040800001472234726
			]
		},
		{
			"name":"DEF-f_ring.03.R",
			"rotation":[
				5.833144633982101e-09,
				-4.030356257067602e-11,
				0.0010670932242646813,
				0.9999994039535522
			],
			"scale":[
				1,
				0.9999999403953552,
				1
			],
			"translation":[
				2.1964297047816217e-09,
				0.030919602140784264,
				-1.9299511677672854e-07
			]
		},
		{
			"children":[
				28
			],
			"name":"DEF-f_ring.02.R",
			"rotation":[
				-5.402226443962377e-10,
				2.3112789904189412e-07,
				-1.214444637298584e-05,
				1
			],
			"translation":[
				-7.639755494892597e-10,
				0.039324965327978134,
				-2.8917907002323773e-07
			]
		},
		{
			"children":[
				29
			],
			"name":"Ring_R",
			"rotation":[
				-0.012588695622980595,
				-0.706997275352478,
				0.01258875336498022,
				0.7069921493530273
			],
			"scale":[
				1,
				0.9999998211860657,
				1
			],
			"translation":[
				9.95349619188346e-05,
				0.11909964680671692,
				-0.017099997028708458
			]
		},
		{
			"name":"DEF-thumb.03.R",
			"rotation":[
				0.00024776908685453236,
				-8.114116644719616e-05,
				0.0005349463899619877,
				0.9999998807907104
			],
			"scale":[
				0.9999998807907104,
				0.9999999403953552,
				1
			],
			"translation":[
				-2.2674976207781583e-07,
				0.04907789081335068,
				2.0954757928848267e-08
			]
		},
		{
			"children":[
				31
			],
			"name":"DEF-thumb.02.R",
			"rotation":[
				-0.00013558939099311829,
				7.404810457956046e-05,
				-4.746556805912405e-05,
				1
			],
			"scale":[
				1,
				1,
				0.9999998807907104
			],
			"translation":[
				5.158499334356748e-07,
				0.04302992671728134,
				1.5366822481155396e-07
			]
		},
		{
			"children":[
				32
			],
			"name":"Thumb_R",
			"rotation":[
				0.247412770986557,
				-0.9457944631576538,
				-0.2034413367509842,
				0.053584277629852295
			],
			"scale":[
				1.0000001192092896,
				0.9999995231628418,
				1
			],
			"translation":[
				-0.02279968559741974,
				0.02729985862970352,
				0.03359995409846306
			]
		},
		{
			"children":[
				21,
				24,
				27,
				30,
				33
			],
			"name":"Wrist_R",
			"rotation":[
				-0.008619689382612705,
				4.1720932131283917e-07,
				-8.357448066931283e-09,
				0.9999628663063049
			],
			"translation":[
				-1.9526419237081427e-07,
				0.2726404368877411,
				2.631281859066803e-08
			]
		},
		{
			"children":[
				34
			],
			"name":"Forearm_R",
			"rotation":[
				0.01718238554894924,
				2.048057649517432e-05,
				-3.408655118164461e-07,
				0.9998524188995361
			],
			"translation":[
				-1.2724476050607336e-07,
				0.27444028854370117,
				-2.0696461433544755e-08
			]
		},
		{
			"children":[
				35
			],
			"name":"UpperArm_R",
			"rotation":[
				0.18026959896087646,
				-0.6838499903678894,
				0.1798364520072937,
				0.6837477087974548
			],
			"scale":[
				1.0000001192092896,
				1.000000238418579,
				1
			],
			"translation":[
				0.03007231093943119,
				0.21858175098896027,
				-0.016968559473752975
			]
		},
		{
			"children":[
				36
			],
			"name":"Clavicle_R",
			"rotation":[
				-0.6040205359458923,
				0.3451029062271118,
				0.3567175269126892,
				0.6235509514808655
			],
			"scale":[
				0.9999999403953552,
				0.9999998807907104,
				0.9999999403953552
			],
			"translation":[
				-0.018800007179379463,
				0.1405540257692337,
				0.08089502900838852
			]
		},
		{
			"name":"Head",
			"rotation":[
				-0.07867424190044403,
				6.229920579414738e-09,
				-1.2273511984517427e-08,
				0.9969003796577454
			],
			"scale":[
				1,
				1.0000001192092896,
				1
			],
			"translation":[
				6.359281963595319e-16,
				0.08258658647537231,
				-2.0954757928848267e-08
			]
		},
		{
			"children":[
				38
			],
			"name":"Neck",
			"rotation":[
				0.11098597198724747,
				-1.6968435545550165e-08,
				1.851564590538146e-08,
				0.9938219785690308
			],
			"scale":[
				1,
				0.9999998807907104,
				0.9999999403953552
			],
			"translation":[
				7.0404480720853355e-15,
				0.1728910356760025,
				-1.30385160446167e-08
			]
		},
		{
			"children":[
				18,
				37,
				39
			],
			"name":"Chest",
			"rotation":[
				-0.0002685748040676117,
				1.0653725013298754e-08,
				-4.652576934827124e-11,
				1
			],
			"translation":[
				-5.826062017804529e-16,
				0.14127187430858612,
				1.862645149230957e-09
			]
		},
		{
			"children":[
				40
			],
			"name":"Spine2",
			"rotation":[
				-0.07727988809347153,
				-5.8015501736008446e-08,
				-1.7062212975815783e-08,
				0.9970094561576843
			],
			"scale":[
				1,
				0.9999999403953552,
				1
			],
			"translation":[
				9.09935985609657e-15,
				0.1240350753068924,
				-2.8579961508512497e-08
			]
		},
		{
			"children":[
				41
			],
			"name":"Spine",
			"rotation":[
				-0.06470275670289993,
				1.0512353298963717e-07,
				-1.1234337904397762e-08,
				0.9979045987129211
			],
			"translation":[
				5.481202294208834e-15,
				0.13817650079727173,
				1.4901161193847656e-08
			]
		},
		{
			"name":"Toe_L",
			"rotation":[
				0.00013706546451430768,
				-0.9643067121505737,
				0.26478737592697144,
				0.0004996642819605768
			],
			"scale":[
				1,
				1.000000238418579,
				0.9999998807907104
			],
			"translation":[
				1.107582647819072e-08,
				0.1733008325099945,
				-3.5754055716097355e-08
			]
		},
		{
			"children":[
				43
			],
			"name":"Ankle_L",
			"rotation":[
				-0.5290712714195251,
				-0.0003280944947618991,
				0.0003434529935475439,
				0.8485772609710693
			],
			"translation":[
				2.091837814077735e-10,
				0.4294799864292145,
				-5.888068699277937e-09
			]
		},
		{
			"children":[
				44
			],
			"name":"Shin_L",
			"rotation":[
				0.03658592328429222,
				-0.0001312893582507968,
				-4.799037014890928e-06,
				0.9993305206298828
			],
			"scale":[
				0.9999999403953552,
				1,
				0.9999999403953552
			],
			"translation":[
				-2.271155485900067e-09,
				0.40030959248542786,
				1.5285195331671275e-10
			]
		},
		{
			"children":[
				45
			],
			"name":"Thigh_L",
			"rotation":[
				0.9924845099449158,
				9.087724350820281e-09,
				1.49753773825978e-07,
				0.12237047404050827
			],
			"scale":[
				1,
				1,
				1.000000238418579
			],
			"translation":[
				0.08899997174739838,
				0.027770763263106346,
				0.04602382704615593
			]
		},
		{
			"name":"Toe_R",
			"rotation":[
				0.0001370972313452512,
				-0.964306652545929,
				0.26478758454322815,
				0.0004995492636226118
			],
			"scale":[
				1,
				1,
				0.9999998807907104
			],
			"translation":[
				-1.1353222362231463e-08,
				0.17330080270767212,
				-4.7097273636609316e-08
			]
		},
		{
			"children":[
				47
			],
			"name":"Ankle_R",
			"rotation":[
				-0.5290712714195251,
				-0.00032809461117722094,
				0.0003434529935475439,
				0.8485772609710693
			],
			"scale":[
				1,
				1.0000001192092896,
				0.9999999403953552
			],
			"translation":[
				3.000127435370814e-08,
				0.42947983741760254,
				-7.148628355935216e-09
			]
		},
		{
			"children":[
				48
			],
			"name":"Shin_R",
			"rotation":[
				0.03658592328429222,
				-0.00013123656390234828,
				-4.800967872142792e-06,
				0.9993305206298828
			],
			"scale":[
				0.9999999403953552,
				0.9999999403953552,
				0.9999999403953552
			],
			"translation":[
				-3.1532561450831054e-08,
				0.4003097116947174,
				-1.795212867250484e-10
			]
		},
		{
			"children":[
				49
			],
			"name":"Thigh_R",
			"rotation":[
				0.9924845099449158,
				2.623415262803519e-09,
				9.73250706692852e-08,
				0.12237047404050827
			],
			"scale":[
				1,
				1,
				1.0000004768371582
			],
			"translation":[
				-0.08899997919797897,
				0.02777082659304142,
				0.046023812144994736
			]
		},
		{
			"children":[
				42,
				46,
				50
			],
			"name":"Hips",
			"rotation":[
				0.7904684543609619,
				2.0912592546551423e-08,
				2.698885559482278e-08,
				0.6125028133392334
			],
			"scale":[
				1,
				0.9999999403953552,
				0.9999999403953552
			],
			"translation":[
				5.558205053592097e-17,
				0.050100088119506836,
				0.9167001247406006
			]
		},
		{
			"children":[
				51
			],
			"name":"Root",
			"rotation":[
				-0.7071067690849304,
				0,
				0,
				0.7071067690849304
			]
		},
		{
			"mesh":0,
			"name":"Mannequin",
			"skin":0
		},
		{
			"children":[
				53,
				52
			],
			"name":"Rig"
		}
	],
	"materials":[
		{
			"doubleSided":true,
			"name":"M_Skin",
			"pbrMetallicRoughness":{
				"baseColorFactor":[
					0.8700000047683716,
					0.6800000071525574,
					0.5299999713897705,
					1
				],
				"metallicFactor":0,
				"roughnessFactor":0.75
			}
		},
		{
			"doubleSided":true,
			"name":"M_Jersey",
			"pbrMetallicRoughness":{
				"baseColorFactor":[
					0.05999999865889549,
					0.1599999964237213,
					0.4000000059604645,
					1
				],
				"metallicFactor":0,
				"roughnessFactor":0.75
			}
		},
		{
			"doubleSided":true,
			"name":"M_Pants",
			"pbrMetallicRoughness":{
				"baseColorFactor":[
					0.8199999928474426,
					0.8199999928474426,
					0.800000011920929,
					1
				],
				"metallicFactor":0,
				"roughnessFactor":0.75
			}
		},
		{
			"doubleSided":true,
			"name":"M_Shoe",
			"pbrMetallicRoughness":{
				"baseColorFactor":[
					0.10000000149011612,
					0.09000000357627869,
					0.09000000357627869,
					1
				],
				"metallicFactor":0,
				"roughnessFactor":0.75
			}
		},
		{
			"doubleSided":true,
			"name":"M_Helmet",
			"pbrMetallicRoughness":{
				"baseColorFactor":[
					0.05999999865889549,
					0.1599999964237213,
					0.4000000059604645,
					1
				],
				"metallicFactor":0,
				"roughnessFactor":0.75
			}
		},
		{
			"doubleSided":true,
			"name":"M_Number",
			"pbrMetallicRoughness":{
				"baseColorFactor":[
					0.8999999761581421,
					0.8600000143051147,
					0.800000011920929,
					1
				],
				"metallicFactor":0,
				"roughnessFactor":0.75
			}
		}
	],
	"meshes":[
		{
			"name":"Mannequin",
			"primitives":[
				{
					"attributes":{
						"POSITION":0,
						"NORMAL":1,
						"TEXCOORD_0":2,
						"TEXCOORD_1":3,
						"JOINTS_0":4,
						"WEIGHTS_0":5
					},
					"indices":6,
					"material":0
				},
				{
					"attributes":{
						"POSITION":7,
						"NORMAL":8,
						"TEXCOORD_0":9,
						"TEXCOORD_1":10,
						"JOINTS_0":11,
						"WEIGHTS_0":12
					},
					"indices":13,
					"material":1
				},
				{
					"attributes":{
						"POSITION":14,
						"NORMAL":15,
						"TEXCOORD_0":16,
						"TEXCOORD_1":17,
						"JOINTS_0":18,
						"WEIGHTS_0":19
					},
					"indices":20,
					"material":2
				},
				{
					"attributes":{
						"POSITION":21,
						"NORMAL":22,
						"TEXCOORD_0":23,
						"TEXCOORD_1":24,
						"JOINTS_0":25,
						"WEIGHTS_0":26
					},
					"indices":27,
					"material":3
				},
				{
					"attributes":{
						"POSITION":28,
						"NORMAL":29,
						"TEXCOORD_0":30,
						"TEXCOORD_1":31,
						"JOINTS_0":32,
						"WEIGHTS_0":33
					},
					"indices":34,
					"material":4
				},
				{
					"attributes":{
						"POSITION":35,
						"NORMAL":36,
						"TEXCOORD_0":37,
						"TEXCOORD_1":38,
						"JOINTS_0":39,
						"WEIGHTS_0":40
					},
					"indices":41,
					"material":5
				}
			]
		}
	],
	"skins":[
		{
			"inverseBindMatrices":42,
			"joints":[
				52,
				51,
				42,
				41,
				40,
				18,
				17,
				16,
				15,
				2,
				1,
				0,
				5,
				4,
				3,
				8,
				7,
				6,
				11,
				10,
				9,
				14,
				13,
				12,
				37,
				36,
				35,
				34,
				21,
				20,
				19,
				24,
				23,
				22,
				27,
				26,
				25,
				30,
				29,
				28,
				33,
				32,
				31,
				39,
				38,
				46,
				45,
				44,
				43,
				50,
				49,
				48,
				47
			],
			"name":"Rig"
		}
	],
	"accessors":[
		{
			"bufferView":0,
			"componentType":5126,
			"count":6260,
			"max":[
				0.9722273349761963,
				1.829179286956787,
				0.11840833723545074
			],
			"min":[
				-0.9722274541854858,
				1.350878357887268,
				-0.1439705789089203
			],
			"type":"VEC3"
		},
		{
			"bufferView":1,
			"componentType":5126,
			"count":6260,
			"type":"VEC3"
		},
		{
			"bufferView":2,
			"componentType":5126,
			"count":6260,
			"type":"VEC2"
		},
		{
			"bufferView":3,
			"componentType":5126,
			"count":6260,
			"type":"VEC2"
		},
		{
			"bufferView":4,
			"componentType":5121,
			"count":6260,
			"type":"VEC4"
		},
		{
			"bufferView":5,
			"componentType":5126,
			"count":6260,
			"type":"VEC4"
		},
		{
			"bufferView":6,
			"componentType":5123,
			"count":30807,
			"type":"SCALAR"
		},
		{
			"bufferView":7,
			"componentType":5126,
			"count":1497,
			"max":[
				0.7598968148231506,
				1.546324610710144,
				0.12870411574840546
			],
			"min":[
				-0.7598966360092163,
				0.8433802723884583,
				-0.16415394842624664
			],
			"type":"VEC3"
		},
		{
			"bufferView":8,
			"componentType":5126,
			"count":1497,
			"type":"VEC3"
		},
		{
			"bufferView":9,
			"componentType":5126,
			"count":1497,
			"type":"VEC2"
		},
		{
			"bufferView":10,
			"componentType":5126,
			"count":1497,
			"type":"VEC2"
		},
		{
			"bufferView":11,
			"componentType":5121,
			"count":1497,
			"type":"VEC4"
		},
		{
			"bufferView":12,
			"componentType":5126,
			"count":1497,
			"type":"VEC4"
		},
		{
			"bufferView":13,
			"componentType":5123,
			"count":6522,
			"type":"SCALAR"
		},
		{
			"bufferView":14,
			"componentType":5126,
			"count":654,
			"max":[
				0.16947656869888306,
				1.0069648027420044,
				0.10089108347892761
			],
			"min":[
				-0.16947656869888306,
				0.07424924522638321,
				-0.11773665249347687
			],
			"type":"VEC3"
		},
		{
			"bufferView":15,
			"componentType":5126,
			"count":654,
			"type":"VEC3"
		},
		{
			"bufferView":16,
			"componentType":5126,
			"count":654,
			"type":"VEC2"
		},
		{
			"bufferView":17,
			"componentType":5126,
			"count":654,
			"type":"VEC2"
		},
		{
			"bufferView":18,
			"componentType":5121,
			"count":654,
			"type":"VEC4"
		},
		{
			"bufferView":19,
			"componentType":5126,
			"count":654,
			"type":"VEC4"
		},
		{
			"bufferView":20,
			"componentType":5123,
			"count":2772,
			"type":"SCALAR"
		},
		{
			"bufferView":21,
			"componentType":5126,
			"count":230,
			"max":[
				0.1553070992231369,
				0.12047145515680313,
				0.2054440975189209
			],
			"min":[
				-0.1553070992231369,
				0.0004614391946233809,
				-0.09771187603473663
			],
			"type":"VEC3"
		},
		{
			"bufferView":22,
			"componentType":5126,
			"count":230,
			"type":"VEC3"
		},
		{
			"bufferView":23,
			"componentType":5126,
			"count":230,
			"type":"VEC2"
		},
		{
			"bufferView":24,
			"componentType":5126,
			"count":230,
			"type":"VEC2"
		},
		{
			"bufferView":25,
			"componentType":5121,
			"count":230,
			"type":"VEC4"
		},
		{
			"bufferView":26,
			"componentType":5126,
			"count":230,
			"type":"VEC4"
		},
		{
			"bufferView":27,
			"componentType":5123,
			"count":1128,
			"type":"SCALAR"
		},
		{
			"bufferView":28,
			"componentType":5126,
			"count":328,
			"max":[
				0.11499999463558197,
				1.760371208190918,
				0.11914243549108505
			],
			"min":[
				-0.11499997228384018,
				1.5909713506698608,
				-0.14605754613876343
			],
			"type":"VEC3"
		},
		{
			"bufferView":29,
			"componentType":5126,
			"count":328,
			"type":"VEC3"
		},
		{
			"bufferView":30,
			"componentType":5126,
			"count":328,
			"type":"VEC2"
		},
		{
			"bufferView":31,
			"componentType":5126,
			"count":328,
			"type":"VEC2"
		},
		{
			"bufferView":32,
			"componentType":5121,
			"count":328,
			"type":"VEC4"
		},
		{
			"bufferView":33,
			"componentType":5126,
			"count":328,
			"type":"VEC4"
		},
		{
			"bufferView":34,
			"componentType":5123,
			"count":468,
			"type":"SCALAR"
		},
		{
			"bufferView":35,
			"componentType":5126,
			"count":24,
			"max":[
				0.05000000074505806,
				1.4297995567321777,
				0.1325998604297638
			],
			"min":[
				-0.05000000074505806,
				1.2997996807098389,
				0.11759986728429794
			],
			"type":"VEC3"
		},
		{
			"bufferView":36,
			"componentType":5126,
			"count":24,
			"type":"VEC3"
		},
		{
			"bufferView":37,
			"componentType":5126,
			"count":24,
			"type":"VEC2"
		},
		{
			"bufferView":38,
			"componentType":5126,
			"count":24,
			"type":"VEC2"
		},
		{
			"bufferView":39,
			"componentType":5121,
			"count":24,
			"type":"VEC4"
		},
		{
			"bufferView":40,
			"componentType":5126,
			"count":24,
			"type":"VEC4"
		},
		{
			"bufferView":41,
			"componentType":5123,
			"count":36,
			"type":"SCALAR"
		},
		{
			"bufferView":42,
			"componentType":5126,
			"count":53,
			"type":"MAT4"
		}
	],
	"bufferViews":[
		{
			"buffer":0,
			"byteLength":75120,
			"byteOffset":0,
			"target":34962
		},
		{
			"buffer":0,
			"byteLength":75120,
			"byteOffset":75120,
			"target":34962
		},
		{
			"buffer":0,
			"byteLength":50080,
			"byteOffset":150240,
			"target":34962
		},
		{
			"buffer":0,
			"byteLength":50080,
			"byteOffset":200320,
			"target":34962
		},
		{
			"buffer":0,
			"byteLength":25040,
			"byteOffset":250400,
			"target":34962
		},
		{
			"buffer":0,
			"byteLength":100160,
			"byteOffset":275440,
			"target":34962
		},
		{
			"buffer":0,
			"byteLength":61614,
			"byteOffset":375600,
			"target":34963
		},
		{
			"buffer":0,
			"byteLength":17964,
			"byteOffset":437216,
			"target":34962
		},
		{
			"buffer":0,
			"byteLength":17964,
			"byteOffset":455180,
			"target":34962
		},
		{
			"buffer":0,
			"byteLength":11976,
			"byteOffset":473144,
			"target":34962
		},
		{
			"buffer":0,
			"byteLength":11976,
			"byteOffset":485120,
			"target":34962
		},
		{
			"buffer":0,
			"byteLength":5988,
			"byteOffset":497096,
			"target":34962
		},
		{
			"buffer":0,
			"byteLength":23952,
			"byteOffset":503084,
			"target":34962
		},
		{
			"buffer":0,
			"byteLength":13044,
			"byteOffset":527036,
			"target":34963
		},
		{
			"buffer":0,
			"byteLength":7848,
			"byteOffset":540080,
			"target":34962
		},
		{
			"buffer":0,
			"byteLength":7848,
			"byteOffset":547928,
			"target":34962
		},
		{
			"buffer":0,
			"byteLength":5232,
			"byteOffset":555776,
			"target":34962
		},
		{
			"buffer":0,
			"byteLength":5232,
			"byteOffset":561008,
			"target":34962
		},
		{
			"buffer":0,
			"byteLength":2616,
			"byteOffset":566240,
			"target":34962
		},
		{
			"buffer":0,
			"byteLength":10464,
			"byteOffset":568856,
			"target":34962
		},
		{
			"buffer":0,
			"byteLength":5544,
			"byteOffset":579320,
			"target":34963
		},
		{
			"buffer":0,
			"byteLength":2760,
			"byteOffset":584864,
			"target":34962
		},
		{
			"buffer":0,
			"byteLength":2760,
			"byteOffset":587624,
			"target":34962
		},
		{
			"buffer":0,
			"byteLength":1840,
			"byteOffset":590384,
			"target":34962
		},
		{
			"buffer":0,
			"byteLength":1840,
			"byteOffset":592224,
			"target":34962
		},
		{
			"buffer":0,
			"byteLength":920,
			"byteOffset":594064,
			"target":34962
		},
		{
			"buffer":0,
			"byteLength":3680,
			"byteOffset":594984,
			"target":34962
		},
		{
			"buffer":0,
			"byteLength":2256,
			"byteOffset":598664,
			"target":34963
		},
		{
			"buffer":0,
			"byteLength":3936,
			"byteOffset":600920,
			"target":34962
		},
		{
			"buffer":0,
			"byteLength":3936,
			"byteOffset":604856,
			"target":34962
		},
		{
			"buffer":0,
			"byteLength":2624,
			"byteOffset":608792,
			"target":34962
		},
		{
			"buffer":0,
			"byteLength":2624,
			"byteOffset":611416,
			"target":34962
		},
		{
			"buffer":0,
			"byteLength":1312,
			"byteOffset":614040,
			"target":34962
		},
		{
			"buffer":0,
			"byteLength":5248,
			"byteOffset":615352,
			"target":34962
		},
		{
			"buffer":0,
			"byteLength":936,
			"byteOffset":620600,
			"target":34963
		},
		{
			"buffer":0,
			"byteLength":288,
			"byteOffset":621536,
			"target":34962
		},
		{
			"buffer":0,
			"byteLength":288,
			"byteOffset":621824,
			"target":34962
		},
		{
			"buffer":0,
			"byteLength":192,
			"byteOffset":622112,
			"target":34962
		},
		{
			"buffer":0,
			"byteLength":192,
			"byteOffset":622304,
			"target":34962
		},
		{
			"buffer":0,
			"byteLength":96,
			"byteOffset":622496,
			"target":34962
		},
		{
			"buffer":0,
			"byteLength":384,
			"byteOffset":622592,
			"target":34962
		},
		{
			"buffer":0,
			"byteLength":72,
			"byteOffset":622976,
			"target":34963
		},
		{
			"buffer":0,
			"byteLength":3392,
			"byteOffset":623048
		}
	],
	"buffers":[
		{
			"byteLength":626440,
			"uri":"pitcher.bin"
		}
	]
}
